<?xml version="1.0" encoding="UTF-8" standalone="no"?>
<svg
   xmlns:dc="http://purl.org/dc/elements/1.1/"
   xmlns:cc="http://creativecommons.org/ns#"
   xmlns:rdf="http://www.w3.org/1999/02/22-rdf-syntax-ns#"
   xmlns:svg="http://www.w3.org/2000/svg"
   xmlns="http://www.w3.org/2000/svg"
   xmlns:sodipodi="http://sodipodi.sourceforge.net/DTD/sodipodi-0.dtd"
   xmlns:inkscape="http://www.inkscape.org/namespaces/inkscape"
   preserveAspectRatio="xMidYMid"
   width="197"
   height="68"
   viewBox="0 0 197 68"
   version="1.1"
   id="svg94"
   sodipodi:docname="logo.svg">
  <metadata
     id="metadata98">
    <rdf:RDF>
      <cc:Work
         rdf:about="">
        <dc:format>image/svg+xml</dc:format>
        <dc:type
           rdf:resource="http://purl.org/dc/dcmitype/StillImage" />
      </cc:Work>
    </rdf:RDF>
  </metadata>
  <sodipodi:namedview
     pagecolor="#ffffff"
     bordercolor="#666666"
     borderopacity="1"
     objecttolerance="10"
     gridtolerance="10"
     guidetolerance="10"
     inkscape:pageopacity="0"
     inkscape:pageshadow="2"
     inkscape:window-width="640"
     inkscape:window-height="480"
     id="namedview96"
     showgrid="true"
     inkscape:snap-global="false">
    <inkscape:grid
       type="xygrid"
       id="grid354" />
  </sodipodi:namedview>
  <defs
     id="defs80">
    <style
       id="style55">
      .cls-1, .cls-3 {
        fill: #f55d2c;
      }

      .cls-1, .cls-2, .cls-4 {
        fill-rule: evenodd;
      }

      .cls-2 {
        fill: #2b2f4c;
      }

      .cls-3 {
        filter: url(#filter-chain-1);
      }

      .cls-4 {
        fill: #fff;
      }
    </style>
    <filter
       id="filter-chain-1"
       filterUnits="userSpaceOnUse">
      <feOffset
         dy="2"
         in="SourceAlpha"
         id="feOffset57" />
      <feGaussianBlur
         stdDeviation="2.236"
         result="dropBlur"
         id="feGaussianBlur59" />
      <feFlood
         flood-opacity="0.24"
         id="feFlood61" />
      <feComposite
         operator="in"
         in2="dropBlur"
         result="dropShadowComp"
         id="feComposite63" />
      <feComposite
         in="SourceGraphic"
         result="shadowed"
         in2="dropShadowComp"
         id="feComposite65" />
      <feOffset
         dy="3"
         in="SourceAlpha"
         id="feOffset67" />
      <feGaussianBlur
         stdDeviation="2.646"
         result="innerShadowBlur"
         id="feGaussianBlur69" />
      <feFlood
         flood-opacity="0.26"
         id="feFlood71" />
      <feComposite
         operator="out"
         in2="innerShadowBlur"
         id="feComposite73" />
      <feComposite
         operator="in"
         in2="SourceAlpha"
         id="feComposite75" />
      <feBlend
         mode="multiply"
         in2="shadowed"
         result="innerShadow"
         id="feBlend77" />
    </filter>
  </defs>
  <g
     id="g86">
    <path
       d="M194.901,48.038 L193.305,48.038 C193.193,48.038 193.137,48.089 193.137,48.192 L193.137,55.206 C193.137,55.402 193.039,55.500 192.843,55.500 L191.667,55.500 C191.462,55.500 191.359,55.402 191.359,55.206 L191.359,48.192 C191.359,48.089 191.308,48.038 191.205,48.038 L189.609,48.038 C189.413,48.038 189.315,47.940 189.315,47.744 L189.315,46.792 C189.315,46.596 189.413,46.498 189.609,46.498 L194.901,46.498 C195.097,46.498 195.195,46.596 195.195,46.792 L195.195,47.744 C195.195,47.940 195.097,48.038 194.901,48.038 ZM180.985,55.500 C180.789,55.500 180.691,55.402 180.691,55.206 L180.691,46.792 C180.691,46.596 180.789,46.498 180.985,46.498 L185.563,46.498 C185.750,46.498 185.843,46.596 185.843,46.792 L185.843,47.744 C185.843,47.940 185.750,48.038 185.563,48.038 L182.637,48.038 C182.525,48.038 182.469,48.089 182.469,48.192 L182.469,50.012 C182.469,50.115 182.525,50.166 182.637,50.166 L185.031,50.166 C185.227,50.166 185.325,50.264 185.325,50.460 L185.325,51.412 C185.325,51.608 185.227,51.706 185.031,51.706 L182.637,51.706 C182.525,51.706 182.469,51.757 182.469,51.860 L182.469,53.806 C182.469,53.909 182.525,53.960 182.637,53.960 L185.563,53.960 C185.750,53.960 185.843,54.058 185.843,54.254 L185.843,55.206 C185.843,55.402 185.750,55.500 185.563,55.500 L180.985,55.500 ZM176.701,55.500 L175.679,55.500 C175.352,55.500 175.133,55.402 175.021,55.206 L172.879,51.776 L171.997,52.812 L171.997,55.206 C171.997,55.402 171.899,55.500 171.703,55.500 L170.513,55.500 C170.317,55.500 170.219,55.402 170.219,55.206 L170.219,46.792 C170.219,46.596 170.317,46.498 170.513,46.498 L171.703,46.498 C171.899,46.498 171.997,46.596 171.997,46.792 L171.997,50.782 L172.025,50.782 C172.100,50.558 172.244,50.269 172.459,49.914 L174.587,46.792 C174.708,46.596 174.890,46.498 175.133,46.498 L176.505,46.498 C176.608,46.498 176.671,46.528 176.694,46.589 C176.717,46.650 176.692,46.727 176.617,46.820 L173.957,50.502 L176.925,55.150 C176.990,55.262 177.002,55.348 176.960,55.409 C176.918,55.470 176.832,55.500 176.701,55.500 ZM164.731,55.500 C164.563,55.500 164.442,55.481 164.367,55.444 C164.292,55.407 164.232,55.327 164.185,55.206 L162.785,52.182 L161.847,52.182 C161.735,52.182 161.679,52.233 161.679,52.336 L161.679,55.206 C161.679,55.402 161.581,55.500 161.385,55.500 L160.195,55.500 C159.999,55.500 159.901,55.402 159.901,55.206 L159.901,46.792 C159.901,46.596 159.999,46.498 160.195,46.498 L163.527,46.498 C164.255,46.498 164.824,46.699 165.235,47.100 C165.646,47.501 165.851,48.066 165.851,48.794 L165.851,49.886 C165.851,50.941 165.436,51.641 164.605,51.986 L164.605,52.042 L166.103,55.164 C166.187,55.388 166.108,55.500 165.865,55.500 L164.731,55.500 ZM164.073,48.864 C164.073,48.575 164.003,48.365 163.863,48.234 C163.723,48.103 163.504,48.038 163.205,48.038 L161.833,48.038 C161.730,48.038 161.679,48.089 161.679,48.192 L161.679,50.600 C161.679,50.703 161.730,50.754 161.833,50.754 L163.205,50.754 C163.504,50.754 163.723,50.691 163.863,50.565 C164.003,50.439 164.073,50.236 164.073,49.956 L164.073,48.864 ZM154.483,55.500 C154.381,55.500 154.311,55.479 154.273,55.437 C154.236,55.395 154.208,55.318 154.189,55.206 L153.797,53.666 L151.067,53.666 L150.675,55.206 C150.657,55.318 150.626,55.395 150.584,55.437 C150.542,55.479 150.475,55.500 150.381,55.500 L149.037,55.500 C148.869,55.500 148.813,55.402 148.869,55.206 L151.081,46.792 C151.147,46.596 151.287,46.498 151.501,46.498 L153.363,46.498 C153.597,46.498 153.737,46.596 153.783,46.792 L155.995,55.206 C156.051,55.402 155.995,55.500 155.827,55.500 L154.483,55.500 ZM152.467,48.192 L152.411,48.192 L151.403,52.238 L153.475,52.238 L152.467,48.192 ZM143.521,55.500 C143.325,55.500 143.227,55.402 143.227,55.206 L143.227,48.570 L143.171,48.570 L141.743,53.260 C141.687,53.447 141.571,53.540 141.393,53.540 L140.217,53.540 C140.040,53.540 139.923,53.447 139.867,53.260 L138.411,48.556 L138.355,48.556 L138.355,55.206 C138.355,55.318 138.337,55.395 138.299,55.437 C138.262,55.479 138.183,55.500 138.061,55.500 L136.913,55.500 C136.717,55.500 136.619,55.402 136.619,55.206 L136.619,46.792 C136.619,46.596 136.717,46.498 136.913,46.498 L138.999,46.498 C139.130,46.498 139.219,46.563 139.265,46.694 L140.749,51.636 L140.833,51.636 L142.331,46.694 C142.359,46.563 142.448,46.498 142.597,46.498 L144.669,46.498 C144.865,46.498 144.963,46.596 144.963,46.792 L144.963,55.206 C144.963,55.402 144.865,55.500 144.669,55.500 L143.521,55.500 ZM125.392,55.500 C125.224,55.500 125.102,55.481 125.028,55.444 C124.953,55.407 124.892,55.327 124.846,55.206 L123.446,52.182 L122.508,52.182 C122.396,52.182 122.340,52.233 122.340,52.336 L122.340,55.206 C122.340,55.402 122.242,55.500 122.046,55.500 L120.856,55.500 C120.660,55.500 120.562,55.402 120.562,55.206 L120.562,46.792 C120.562,46.596 120.660,46.498 120.856,46.498 L124.188,46.498 C124.916,46.498 125.485,46.699 125.896,47.100 C126.306,47.501 126.512,48.066 126.512,48.794 L126.512,49.886 C126.512,50.941 126.096,51.641 125.266,51.986 L125.266,52.042 L126.764,55.164 C126.848,55.388 126.768,55.500 126.526,55.500 L125.392,55.500 ZM124.734,48.864 C124.734,48.575 124.664,48.365 124.524,48.234 C124.384,48.103 124.164,48.038 123.866,48.038 L122.494,48.038 C122.391,48.038 122.340,48.089 122.340,48.192 L122.340,50.600 C122.340,50.703 122.391,50.754 122.494,50.754 L123.866,50.754 C124.164,50.754 124.384,50.691 124.524,50.565 C124.664,50.439 124.734,50.236 124.734,49.956 L124.734,48.864 ZM111.490,55.500 C111.294,55.500 111.196,55.402 111.196,55.206 L111.196,46.792 C111.196,46.596 111.294,46.498 111.490,46.498 L116.068,46.498 C116.254,46.498 116.348,46.596 116.348,46.792 L116.348,47.744 C116.348,47.940 116.254,48.038 116.068,48.038 L113.142,48.038 C113.030,48.038 112.974,48.089 112.974,48.192 L112.974,50.012 C112.974,50.115 113.030,50.166 113.142,50.166 L115.536,50.166 C115.732,50.166 115.830,50.264 115.830,50.460 L115.830,51.412 C115.830,51.608 115.732,51.706 115.536,51.706 L113.142,51.706 C113.030,51.706 112.974,51.757 112.974,51.860 L112.974,53.806 C112.974,53.909 113.030,53.960 113.142,53.960 L116.068,53.960 C116.254,53.960 116.348,54.058 116.348,54.254 L116.348,55.206 C116.348,55.402 116.254,55.500 116.068,55.500 L111.490,55.500 ZM104.826,52.406 L103.062,52.406 C102.950,52.406 102.894,52.457 102.894,52.560 L102.894,55.206 C102.894,55.402 102.796,55.500 102.600,55.500 L101.410,55.500 C101.214,55.500 101.116,55.402 101.116,55.206 L101.116,46.792 C101.116,46.596 101.214,46.498 101.410,46.498 L104.826,46.498 C105.554,46.498 106.118,46.696 106.520,47.093 C106.921,47.490 107.122,48.052 107.122,48.780 L107.122,50.124 C107.122,50.852 106.921,51.414 106.520,51.811 C106.118,52.208 105.554,52.406 104.826,52.406 ZM105.344,48.864 C105.344,48.565 105.283,48.353 105.162,48.227 C105.040,48.101 104.830,48.038 104.532,48.038 L103.048,48.038 C102.945,48.038 102.894,48.089 102.894,48.192 L102.894,50.698 C102.894,50.801 102.945,50.852 103.048,50.852 L104.532,50.852 C104.830,50.852 105.040,50.789 105.162,50.663 C105.283,50.537 105.344,50.329 105.344,50.040 L105.344,48.864 ZM94.396,55.500 L92.856,55.500 C92.118,55.500 91.549,55.304 91.148,54.912 C90.746,54.520 90.546,53.955 90.546,53.218 L90.546,46.792 C90.546,46.596 90.644,46.498 90.840,46.498 L92.030,46.498 C92.226,46.498 92.324,46.596 92.324,46.792 L92.324,53.134 C92.324,53.433 92.387,53.645 92.513,53.771 C92.639,53.897 92.846,53.960 93.136,53.960 L94.102,53.960 C94.400,53.960 94.613,53.897 94.739,53.771 C94.865,53.645 94.928,53.433 94.928,53.134 L94.928,46.792 C94.928,46.596 95.026,46.498 95.222,46.498 L96.398,46.498 C96.603,46.498 96.706,46.591 96.706,46.778 L96.706,53.218 C96.706,53.946 96.503,54.508 96.097,54.905 C95.691,55.302 95.124,55.500 94.396,55.500 ZM84.036,55.500 L82.510,55.500 C81.782,55.500 81.213,55.299 80.802,54.898 C80.391,54.497 80.186,53.932 80.186,53.204 L80.186,52.924 C80.186,52.728 80.284,52.630 80.480,52.630 L81.670,52.630 C81.866,52.630 81.964,52.728 81.964,52.924 L81.964,53.036 C81.964,53.391 82.034,53.633 82.174,53.764 C82.314,53.895 82.571,53.960 82.944,53.960 L83.602,53.960 C83.966,53.960 84.220,53.890 84.365,53.750 C84.510,53.610 84.582,53.349 84.582,52.966 L84.582,52.798 C84.582,52.527 84.472,52.320 84.253,52.175 C84.034,52.030 83.761,51.944 83.434,51.916 C83.107,51.888 82.755,51.834 82.377,51.755 C81.999,51.676 81.647,51.573 81.320,51.447 C80.993,51.321 80.720,51.074 80.501,50.705 C80.282,50.336 80.172,49.863 80.172,49.284 L80.172,48.794 C80.172,48.066 80.377,47.501 80.788,47.100 C81.199,46.699 81.768,46.498 82.496,46.498 L83.896,46.498 C84.633,46.498 85.207,46.699 85.618,47.100 C86.029,47.501 86.234,48.066 86.234,48.794 L86.234,49.060 C86.234,49.256 86.136,49.354 85.940,49.354 L84.750,49.354 C84.554,49.354 84.456,49.256 84.456,49.060 L84.456,48.976 C84.456,48.612 84.386,48.365 84.246,48.234 C84.106,48.103 83.849,48.038 83.476,48.038 L82.930,48.038 C82.547,48.038 82.288,48.110 82.153,48.255 C82.018,48.400 81.950,48.682 81.950,49.102 L81.950,49.368 C81.950,49.807 82.333,50.059 83.098,50.124 C83.891,50.189 84.596,50.348 85.212,50.600 C85.539,50.740 85.812,50.990 86.031,51.349 C86.250,51.708 86.360,52.168 86.360,52.728 L86.360,53.204 C86.360,53.932 86.155,54.497 85.744,54.898 C85.333,55.299 84.764,55.500 84.036,55.500 Z"
       class="cls-1"
       id="path82" />
    <path
       d="m 194.413,32.715 c -1.218,1.19 -2.919,1.785 -5.103,1.785 h -3.738 c -2.212,0 -3.92,-0.588 -5.124,-1.764 -1.204,-1.176 -1.806,-2.87 -1.806,-5.082 v -7.728 c 0,-2.212 0.602,-3.906 1.806,-5.082 1.204,-1.176 2.912,-1.764 5.124,-1.764 h 3.738 c 2.184,0 3.885,0.595 5.103,1.785 1.218,1.19 1.827,2.877 1.827,5.061 v 7.728 c 0,2.184 -0.609,3.871 -1.827,5.061 z M 190.99,20.094 c 0,-0.896 -0.189,-1.526 -0.567,-1.89 -0.378,-0.364 -1.015,-0.546 -1.911,-0.546 h -2.142 c -0.896,0 -1.526,0.182 -1.89,0.546 -0.364,0.364 -0.546,0.994 -0.546,1.89 v 7.392 c 0,0.896 0.182,1.526 0.546,1.89 0.364,0.364 0.994,0.546 1.89,0.546 h 2.142 c 0.896,0 1.533,-0.182 1.911,-0.546 0.378,-0.364 0.567,-0.994 0.567,-1.89 z M 167.933,34.5 h -10.08 c -0.588,0 -0.882,-0.294 -0.882,-0.882 V 5.856 c 0,-0.588 0.294,-0.882 0.882,-0.882 h 3.57 c 0.588,0 0.882,0.294 0.882,0.882 v 9.45 h 0.168 c 0.308,-0.756 0.854,-1.33 1.638,-1.722 0.784,-0.392 1.61,-0.588 2.478,-0.588 h 1.344 c 2.212,0 3.92,0.588 5.124,1.764 1.204,1.176 1.806,2.87 1.806,5.082 v 7.812 c 0,2.212 -0.602,3.906 -1.806,5.082 -1.204,1.176 -2.912,1.764 -5.124,1.764 z m 1.596,-14.406 c 0,-0.896 -0.189,-1.533 -0.567,-1.911 -0.378,-0.378 -1.015,-0.567 -1.911,-0.567 h -1.848 c -1.932,0 -2.898,1.064 -2.898,3.192 v 8.61 c 0,0.308 0.154,0.462 0.462,0.462 h 4.284 c 0.896,0 1.533,-0.189 1.911,-0.567 0.378,-0.378 0.567,-1.015 0.567,-1.911 z M 151.638,34.5 h -3.57 c -0.588,0 -0.882,-0.294 -0.882,-0.882 v -13.44 c 0,-0.896 -0.183,-1.533 -0.546,-1.911 -0.365,-0.378 -0.995,-0.567 -1.89,-0.567 h -1.05 c -1.932,0 -2.898,1.078 -2.898,3.234 v 12.684 c 0,0.588 -0.309,0.882 -0.924,0.882 h -3.528 c -0.588,0 -0.882,-0.294 -0.882,-0.882 v -13.44 c 0,-0.896 -0.189,-1.533 -0.567,-1.911 -0.378,-0.378 -1.016,-0.567 -1.911,-0.567 h -1.302 c -1.932,0 -2.898,1.064 -2.898,3.192 v 12.726 c 0,0.588 -0.294,0.882 -0.882,0.882 h -3.57 c -0.588,0 -0.882,-0.294 -0.882,-0.882 V 13.962 c 0,-0.588 0.294,-0.882 0.882,-0.882 h 3.57 c 0.588,0 0.882,0.294 0.882,0.882 v 1.386 h 0.168 c 0.336,-0.672 0.903,-1.218 1.701,-1.638 0.798,-0.42 1.714,-0.63 2.751,-0.63 h 1.176 c 2.436,0 4.185,0.896 5.25,2.688 0.951,-1.792 2.589,-2.688 4.914,-2.688 h 1.218 c 2.155,0 3.786,0.588 4.893,1.764 1.105,1.176 1.659,2.87 1.659,5.082 v 13.692 c 0,0.588 -0.294,0.882 -0.882,0.882 z m -33.726,0 h -3.528 c -0.588,0 -0.882,-0.294 -0.882,-0.882 v -1.386 h -0.168 c -0.309,0.756 -0.855,1.323 -1.638,1.701 -0.784,0.378 -1.611,0.567 -2.478,0.567 h -1.008 c -2.212,0 -3.921,-0.588 -5.124,-1.764 -1.204,-1.176 -1.806,-2.87 -1.806,-5.082 v -7.728 c 0,-2.212 0.602,-3.906 1.806,-5.082 1.203,-1.176 2.912,-1.764 5.124,-1.764 h 9.702 c 0.615,0 0.924,0.294 0.924,0.882 v 19.656 c 0,0.588 -0.309,0.882 -0.924,0.882 z m -4.41,-16.338 c 0,-0.308 -0.168,-0.462 -0.504,-0.462 h -3.948 c -0.897,0 -1.527,0.189 -1.89,0.567 -0.364,0.378 -0.546,1.015 -0.546,1.911 v 7.224 c 0,0.896 0.182,1.533 0.546,1.911 0.363,0.378 0.993,0.567 1.89,0.567 h 1.554 c 1.932,0 2.898,-1.064 2.898,-3.192 z M 90.192,34.5 H 85.74 c -2.212,0 -3.92,-0.588 -5.124,-1.764 C 79.412,31.56 78.838121,29.865821 78.81,27.654 L 78.626744,13.240465 C 78.598623,11.028644 63.835256,6.9521392 65.039256,5.7761396 66.243256,4.6001396 83.528,7.494 85.74,7.494 h 4.452 c 2.184,0 13.95706,-2.8868604 15.16106,-1.6968603 1.204,1.19 -3.91558,4.7276883 -6.073994,5.0610003 l -9.346043,1.443255 c -0.608784,0.09401 10.609237,-1.230464 11.029627,-1.641581 l 4.31,-4.2148838 C 105.69304,6.0338159 102.68737,4.3848134 91.746,15.6 l 3.665116,-3.756837 C 96.036807,11.201814 91.564,13.059 91.2,12.681 90.836,12.303 90.206,12.114 89.31,12.114 h -2.73 c -0.868,0 -1.491,0.189 -1.869,0.567 -0.378,0.378 -0.567,1.015 -0.567,1.911 v 12.81 c 0,0.896 0.189,1.533 0.567,1.911 0.378,0.378 1.001,0.567 1.869,0.567 h 2.73 c 0.896,0 1.526,-0.189 1.89,-0.567 0.364,-0.378 0.546,-1.015 0.546,-1.911 v -2.646 c 0,-0.308 -0.154,-0.462 -0.462,-0.462 h -2.52 c -0.588,0 -8.906401,8.21927 -8.578744,7.731023 L 87.882,20.556 c 0.327657,-0.488247 1.336067,11.913757 1.615023,11.39614 L 96.114,19.674 c 0,0 0.133535,-9.395767 0,0 l 0.966,7.98 c 0,0 -0.602,3.871 -1.806,5.061 -1.204,1.19 -2.898,1.785 -5.082,1.785 z"
       class="cls-2"
       id="path84"
       sodipodi:nodetypes="sssssssssssssssssssssssssssssssssccssssssssssssssssssssssscssssssssssssssssssssccssscsscsssssscccsscsscsssssssscsscssssssssssssssssssssssssssssssssssssccsss" />
  </g>
  <g
     id="g92">
    <rect
       x="4"
       y="2"
       width="60"
       height="60"
       rx="10"
       ry="10"
       class="cls-3"
       id="rect88" />
    <path
       d="M 42.85,46.375 C 44.283,44.959 42.638572,41.43796 45,40.35 L 56.36186,35.115349 C 57.057574,34.794819 44.616,30.85 43.85,30.85 H 35.1 c -0.7,0 -1.05,0.35 -1.05,1.05 v 3.4 c 0,0.7 0.35,1.05 1.05,1.05 h 3 c 0.366,0 0.55,0.184 0.55,0.55 v 3.15 c 0,1.067 -0.217,1.825 -0.65,2.275 C 37.566,42.775 36.816,43 35.75,43 H 32.5 C 31.466,43 30.725,42.775 30.275,42.325 29.825,41.875 29.6,41.117 29.6,40.05 V 24.8 c 0,-1.066 0.225,-1.825 0.675,-2.275 0.45,-0.45 1.191,-0.675 2.225,-0.675 h 3.25 c 1.066,0 1.816,0.225 2.25,0.675 0.433,0.45 0.65,1.209 0.65,2.275 V 26 c 0,0.734 0.35,1.1 1.05,1.1 h 4.25 C 44.65,27.1 45,26.734 45,26 V 24.5 C 45,21.9 44.283,19.892 42.85,18.475 41.416,17.059 39.4,16.35 36.8,16.35 h -5.3 c -2.634,0 -4.667,0.7 -6.1,2.1 -1.434,1.4 -2.15,3.417 -2.15,6.05 v 15.85 c 0,2.634 0.716,4.65 2.15,6.05 1.433,1.4 3.466,2.1 6.1,2.1 h 5.3 c 2.6,0 4.616,-0.708 6.05,-2.125 z"
       class="cls-4"
       id="path90"
       sodipodi:nodetypes="ssssssssssscsssssssscsssssscsscsscsss" />
  </g>
</svg>
